<?xml version="1.0" encoding="utf-8"?>
<!-- Generator: Adobe Illustrator 24.3.0, SVG Export Plug-In . SVG Version: 6.00 Build 0)  -->
<svg version="1.1" id="Layer_1" xmlns="http://www.w3.org/2000/svg" xmlns:xlink="http://www.w3.org/1999/xlink" x="0px" y="0px"
	 viewBox="0 0 500 500" style="enable-background:new 0 0 500 500;" xml:space="preserve">
<style type="text/css">
	.st0{fill:#CAD2F9;}
	.st1{fill:#EEF1FF;}
	.st2{fill:#EDF0FC;}
	.st3{fill:#E2E6FF;}
	.st4{fill:#EB725F;}
	.st5{fill:#92A6F4;}
	.st6{fill:#D0DBF7;}
	.st7{fill:#F5F9FF;}
	.st8{fill:#F9AB43;}
	.st9{fill:#6E7FDD;}
	.st10{fill:#FFCF74;}
	.st11{opacity:0.1;fill:#0046A0;enable-background:new    ;}
	.st12{fill:#F8FAFF;}
	.st13{fill:#FFFFFF;}
	.st14{opacity:0.3;fill:#F5F9FF;enable-background:new    ;}
</style>
<g>
	<polygon class="st0" points="388.3,114.3 382.2,114.3 382.2,108.2 377.9,108.2 377.9,114.3 371.9,114.3 371.9,118.6 377.9,118.6 
		377.9,124.6 382.2,124.6 382.2,118.6 388.3,118.6 	"/>
	<polygon class="st0" points="351.7,91.4 347.3,91.4 347.3,87 344.2,87 344.2,91.4 339.8,91.4 339.8,94.5 344.2,94.5 344.2,98.9 
		347.3,98.9 347.3,94.5 351.7,94.5 	"/>
	<polygon class="st0" points="161.7,162.7 157.3,162.7 157.3,158.3 154.2,158.3 154.2,162.7 149.8,162.7 149.8,165.8 154.2,165.8 
		154.2,170.2 157.3,170.2 157.3,165.8 161.7,165.8 	"/>
	<polygon class="st0" points="42.8,262 36.8,262 36.8,255.9 32.5,255.9 32.5,262 26.4,262 26.4,266.3 32.5,266.3 32.5,272.4 
		36.8,272.4 36.8,266.3 42.8,266.3 	"/>
	<polygon class="st0" points="456.8,156.8 452.4,156.8 452.4,152.4 449.3,152.4 449.3,156.8 444.9,156.8 444.9,159.9 449.3,159.9 
		449.3,164.3 452.4,164.3 452.4,159.9 456.8,159.9 	"/>
</g>
<g>
	<circle class="st1" cx="338.3" cy="124.5" r="3.8"/>
	<circle class="st1" cx="402.2" cy="87" r="2"/>
	<path class="st1" d="M232.3,186.7c0,1.1-0.9,2-2,2s-2-0.9-2-2s0.9-2,2-2C231.4,184.7,232.3,185.6,232.3,186.7z"/>
	<path class="st1" d="M433.3,120.4c0,2.1-1.7,3.8-3.8,3.8c-2.1,0-3.8-1.7-3.8-3.8c0-2.1,1.7-3.8,3.8-3.8
		C431.6,116.6,433.3,118.3,433.3,120.4z"/>
	<path class="st1" d="M201.7,153.1c0,1.1-0.9,2-2,2s-2-0.9-2-2s0.9-2,2-2S201.7,152,201.7,153.1z"/>
	<path class="st1" d="M144.6,89c0,1.1-0.9,2-2,2s-2-0.9-2-2s0.9-2,2-2S144.6,87.9,144.6,89z"/>
	<path class="st1" d="M58.7,206.9c0,2.1-1.7,3.8-3.8,3.8s-3.8-1.7-3.8-3.8s1.7-3.8,3.8-3.8C57,203.1,58.7,204.8,58.7,206.9z"/>
	<circle class="st1" cx="158.1" cy="240" r="3.8"/>
	<circle class="st1" cx="61" cy="108.8" r="3.8"/>
	<path class="st1" d="M22.2,293.9c0,1.1-0.9,2-2,2s-2-0.9-2-2s0.9-2,2-2C21.3,291.9,22.2,292.8,22.2,293.9z"/>
	<path class="st1" d="M462.4,363.3c0,1.1-0.9,2-2,2s-2-0.9-2-2s0.9-2,2-2S462.4,362.2,462.4,363.3z"/>
</g>
<g id="OBJECTS">
	<ellipse class="st2" cx="242.2" cy="405.1" rx="224.6" ry="29.9"/>
	<g>
		<path class="st3" d="M439.9,234.5c12.7,3.7,30.9-5,25.9-14.8c-4.2-8.2-19.4,6.3-25,12.1c1.2-3.6,2.4-7.3,3.5-11
			c10.9-7.5,15.9-26.8,5.1-29.2c-9.2-2.1-7.5,19.8-6.7,27.4c-0.7,2.5-1.5,5.1-2.3,7.6c1-11.3-5-23.7-13.5-20.4
			c-9.7,3.7,7.9,24.4,11,28c-0.1,0.3-0.2,0.7-0.4,1c-1.4,3.9-3,7.8-4.7,11.7c1.7-11-3.1-23.5-11.7-21c-9.9,2.8,5,24.3,8.2,28.6
			c-1.4,2.9-2.9,5.8-4.5,8.6c-1.2,2.1-2.4,4.2-3.7,6.3c3.9-11.3,0.2-26.2-9.3-24.4c-10.2,2,3.6,25.4,6,29.4c-3,4.4-6.2,8.7-9.7,12.7
			c5-10.9,2.6-26.5-7-25.4c-10.1,1.1,0.9,24.4,3.4,29.5c-3.9,4.2-8.2,8-12.7,11.5c7.1-9.7,7.9-25.2-1.8-26.1
			c-10.1-1-4.2,23.7-2.8,29.4c-3.7,2.5-7.5,4.7-11.5,6.6c-1.4,0.7-2.8,1.3-4.3,1.9c-1.2,0.5-0.7,2.4,0.5,1.9
			c5.9-2.4,11.5-5.5,16.8-9.1c9.6,9.2,30.2,9.8,30.1-1.4c-0.1-9.2-19.8-3.1-27.6-0.3c4-2.9,7.8-6.1,11.4-9.6
			c1.3-1.2,2.5-2.5,3.7-3.8c11.3,7,31.5,3.3,29.1-7.6c-2-8.9-19.7,0.8-26.9,5.2c4.1-4.6,7.9-9.6,11.3-14.7
			c11.9,5.8,31.3,0.4,28-10.2c-2.7-8.6-19.3,2.3-26.2,7.3c0.8-1.3,1.7-2.7,2.5-4c2.5-4.3,4.9-8.7,7.1-13.1
			c12.3,5,31.5-1.9,27.4-12.3c-3.5-8.7-20.5,5-26.3,10.1c2.1-4.4,4-8.9,5.7-13.4C438.7,237.9,439.3,236.2,439.9,234.5z"/>
		<path class="st3" d="M60.7,323.5c-0.7-13.2-14.8-27.6-22.5-19.6c-6.4,6.7,12.3,16.2,19.6,19.6c-3.8,0-7.7,0.1-11.5,0.3
			c-10.6-7.8-30.5-6.2-29.3,4.7c1,9.4,21.2,0.6,28.1-2.7c2.6-0.2,5.3-0.3,7.9-0.3C42,328.3,32.3,338,38.2,345
			c6.7,8,20.5-15.5,22.8-19.5c0.4,0,0.7,0,1.1,0c4.2,0.1,8.4,0.3,12.6,0.6c-11,2-21.2,10.6-16,17.9c5.9,8.4,21.3-12.7,24.4-17.1
			c3.2,0.4,6.4,0.9,9.6,1.4c2.4,0.4,4.8,0.9,7.1,1.4c-11.9,0-24.9,8.4-20,16.7c5.3,9,22.9-11.7,25.8-15.3c5.1,1.4,10.2,3,15.2,5
			c-12-1.2-25.9,6.2-21.7,15c4.4,9.2,22.8-8.8,26.8-12.8c5.2,2.4,10.2,5.1,15,8.3c-11.5-3.5-26.4,0.8-24.1,10.3
			c2.4,9.8,23.8-3.8,28.7-7c3.5,2.6,6.9,5.5,10,8.7c1.1,1.1,2.2,2.3,3.2,3.4c0.8,1,2.5-0.2,1.6-1.1c-4.2-4.8-9-9.1-14.1-12.9
			c5.6-12.1-0.7-31.7-11.2-27.9c-8.6,3.1,3.6,19.7,8.7,26.2c-4.1-2.8-8.4-5.4-12.8-7.6c-1.6-0.8-3.2-1.5-4.8-2.2
			c2.9-13-7.2-30.8-16.7-25c-7.7,4.8,7.2,18.3,13.7,23.7c-5.7-2.4-11.6-4.3-17.6-5.9c1.6-13.1-9.9-29.7-18.8-23.2
			c-7.2,5.3,8.5,17.5,15.5,22.3c-1.5-0.4-3-0.7-4.6-1c-4.9-1-9.8-1.8-14.7-2.4c0.7-13.3-12.2-29.2-20.5-21.9
			c-7.1,6.2,11.5,17.7,18.2,21.6c-4.8-0.5-9.7-0.9-14.5-1C64.3,323.5,62.5,323.5,60.7,323.5z"/>
	</g>
	<g>
		<path class="st4" d="M445.8,280.5c3-1.8,6.2-3.5,9.4-4.9c15.3,2.4,27.8-6.7,27.8-6.7c-17.3-5.2-25.5,2.3-28,5.4
			c-1,0.5-2,0.9-3,1.4c-4.8,2.3-9.3,5.1-13.6,8.2c9.2-10.1,10-23.3,10-23.3c-16.5,11-14.1,23.3-13.4,25.9c-3.7,3-7.2,6.3-10.4,9.8
			c6.1-13.4,1.6-27.3,1.6-27.3c-11.2,16.1-4.7,26.6-3,29c-2.4,2.8-4.6,5.7-6.6,8.8c-0.6,0.9-1.2,1.9-1.7,2.8
			c2.7-14.3-4.6-26.6-4.6-26.6c-7.2,17.8,0.9,26.6,3.4,28.7c-2.5,4.5-4.6,9.1-6.4,13.9c1.8-13.5-4.9-24.8-4.9-24.8
			c-7.3,18.1,1.3,27,3.5,28.9c-1.2,3.6-2.2,7.2-3,10.9c-0.2,0.8,1.1,1.2,1.3,0.3c1.3-5.8,3-11.5,5.2-17
			c15.7-0.6,26.3-12.3,26.3-12.3c-14.6-1.3-21.6,4.5-24.7,8.5c1.8-3.9,3.8-7.7,6.1-11.3c15.4,3,28.4-5.9,28.4-5.9
			c-14.4-4.8-22.6-0.4-26.4,2.9c2.4-3.5,5-6.8,7.9-9.9c14.8,4.8,28.7-2.4,28.7-2.4c-12.4-5.9-20.7-3.7-25.3-1.1
			c0.9-0.9,1.8-1.7,2.8-2.5c2.6-2.3,5.4-4.5,8.3-6.4c13.7,7.6,28.8,3,28.8,3C459.2,278.4,450.8,278.9,445.8,280.5z"/>
		<path class="st4" d="M56.1,373.3c-3.5,0-7.1-0.2-10.6-0.6c-11.9-9.8-27.3-8.4-27.3-8.4c12.2,13.3,23.1,11,26.8,9.6
			c1.1,0.1,2.2,0.2,3.3,0.3c5.3,0.4,10.6,0.4,15.9-0.1c-13.1,4-20.6,14.9-20.6,14.9c19.8-1,24.1-12.8,24.8-15.4
			c4.7-0.7,9.4-1.7,13.9-3.1C70.2,379,67,393.3,67,393.3c17.9-8.1,17.7-20.5,17.4-23.4c3.5-1.2,6.9-2.6,10.2-4.2c1-0.5,2-1,2.9-1.5
			c-9.6,10.9-9.6,25.2-9.6,25.2c15.2-11.6,12.8-23.4,11.8-26.4c4.4-2.5,8.7-5.5,12.6-8.7c-8.5,10.7-8.4,23.8-8.4,23.8
			c15.6-11.9,12.7-23.8,11.7-26.6c2.8-2.5,5.5-5.1,8.1-7.9c0.6-0.6-0.3-1.6-0.9-0.9c-4.1,4.4-8.4,8.4-13.1,11.9
			c-13.8-7.5-28.9-2.8-28.9-2.8c11.9,8.6,20.8,7.2,25.6,5.3c-3.5,2.5-7.2,4.7-11,6.6c-11.7-10.4-27.4-9.4-27.4-9.4
			c9.9,11.5,19.3,11.9,24.2,11c-3.8,1.8-7.8,3.3-11.9,4.5c-10.3-11.7-25.9-12.6-25.9-12.6c7.7,11.5,15.9,13.8,21.2,13.9
			c-1.2,0.3-2.4,0.5-3.7,0.8c-3.5,0.6-6.9,1.1-10.5,1.3c-7.9-13.5-23.2-17.3-23.2-17.3C43.5,368.2,51,372.2,56.1,373.3z"/>
	</g>
	<path class="st5" d="M413.1,404.8c0,2.4-2,4.4-4.4,4.4H253.5c-2.4,0-4.4-2-4.4-4.4V175.3c0-2.4,2-4.4,4.4-4.4h155.1
		c2.4,0,4.4,2,4.4,4.4v229.5H413.1z"/>
	<rect x="256.8" y="183.7" class="st6" width="148.5" height="203.9"/>
	<g>
		<g>
			<g>
				<g>
					<rect x="273.9" y="199" class="st7" width="114.4" height="172.4"/>
					<rect x="273.9" y="199" class="st3" width="114.4" height="10.5"/>
				</g>
				<g>
					<path class="st4" d="M283.1,204.5c0,1.3-1.1,2.4-2.4,2.4s-2.4-1.1-2.4-2.4c0-1.3,1.1-2.4,2.4-2.4S283.1,203.1,283.1,204.5z"/>
					<path class="st8" d="M291.2,204.5c0,1.3-1.1,2.4-2.4,2.4s-2.4-1.1-2.4-2.4c0-1.3,1.1-2.4,2.4-2.4S291.2,203.1,291.2,204.5z"/>
					<path class="st9" d="M299.3,204.5c0,1.3-1.1,2.4-2.4,2.4s-2.4-1.1-2.4-2.4c0-1.3,1.1-2.4,2.4-2.4
						C298.2,202.1,299.3,203.1,299.3,204.5z"/>
				</g>
			</g>
		</g>
		<polygon class="st3" points="363.9,266.9 354.3,257.2 331.1,280.4 307.9,257.2 298.2,266.9 321.4,290.1 298.2,313.2 307.9,322.9 
			331.1,299.7 354.3,322.9 363.9,313.2 340.8,290.1 		"/>
	</g>
	<g>
		<path class="st9" d="M311.8,402c0,2.3-1.9,4.1-4.2,4.1H90.2c-2.3,0-4.2-1.9-4.2-4.1V261.4c0-2.3,1.9-4.2,4.2-4.2h217.5
			c2.3,0,4.2,1.9,4.2,4.2V402H311.8z"/>
		<rect x="92.6" y="264.1" class="st6" width="212.6" height="135.1"/>
		<path class="st9" d="M71.3,392.6v12c0,2.6,2.1,4.7,4.7,4.7h245.8c2.6,0,4.7-2.1,4.7-4.7v-12H71.3z"/>
		<path class="st5" d="M161.1,392.6v3.5c0,0.8,0.6,1.4,1.4,1.4h72.8c0.8,0,1.4-0.6,1.4-1.4v-3.5H161.1z"/>
	</g>
	<g>
		<g>
			<path class="st8" d="M435.3,383.1c-0.7,3.1-3.8,5.6-7,5.6h-66.9c-3.2,0-6.3-2.5-7-5.6l-14.9-67.2c-0.7-3.1,1.3-5.6,4.5-5.6h101.8
				c3.2,0,5.2,2.5,4.5,5.6L435.3,383.1z"/>
			<path class="st10" d="M409.8,318.3c-3.2,0-6.6,2.4-7.7,5.4l-3.2,8.9c-1.1,3-4.5,5.4-7.7,5.4h-48.6c-3.2,0-5.1,2.5-4.3,5.5
				l16.2,60.2c0.8,3,4.1,5.5,7.2,5.5H428c3.2,0,6.4-2.5,7.2-5.5l16.2-60.2c0.8-3,2.4-8,3.4-10.9l3.2-8.9c1.1-3-0.7-5.4-3.8-5.4
				H409.8z"/>
			<path class="st11" d="M454.3,318.3h-17.9c2.2,6.2,3.3,12.8,3.3,19.7c0,34.3-28.9,62.1-64.5,62.1c-8,0-15.6-1.4-22.7-4l2,7.6
				c0.8,3,4.1,5.5,7.2,5.5H428c3.2,0,6.4-2.5,7.2-5.5l16.2-60.2c0.8-3,2.4-8,3.4-10.9l3.2-8.9C459.2,320.7,457.5,318.3,454.3,318.3z
				"/>
		</g>
		<g>
			<g>
				<path class="st4" d="M388.3,363.3c0,3.3-1.9,6-4.3,6s-4.3-2.7-4.3-6s1.9-6,4.3-6S388.3,360,388.3,363.3z"/>
				<path class="st4" d="M417,363.3c0,3.3-1.9,6-4.3,6s-4.3-2.7-4.3-6s1.9-6,4.3-6S417,360,417,363.3z"/>
			</g>
			<g>
				<path class="st4" d="M388.4,380.2c1.5-1.6,3.5-2.9,5.6-3.6c5.2-1.9,10.2,0.1,14.2,3.6c1.1,0.9,2.6-0.6,1.6-1.6
					c-4.4-3.9-10.1-6.3-15.9-4.3c-2.6,0.8-5.2,2.3-7,4.3C385.9,379.7,387.5,381.2,388.4,380.2L388.4,380.2z"/>
			</g>
		</g>
	</g>
	<g>
		<g>
			<g>
				<g>
					<rect x="106.8" y="309.5" class="st12" width="97.9" height="72.2"/>
					<rect x="106.8" y="309.5" class="st3" width="97.9" height="9"/>
				</g>
				<g>
					<path class="st4" d="M114.6,314.3c0,1.1-0.9,2.1-2.1,2.1c-1.1,0-2.1-0.9-2.1-2.1s0.9-2.1,2.1-2.1
						C113.7,312.2,114.6,313.1,114.6,314.3z"/>
					<path class="st8" d="M121.6,314.3c0,1.1-0.9,2.1-2.1,2.1c-1.1,0-2.1-0.9-2.1-2.1s0.9-2.1,2.1-2.1
						C120.7,312.2,121.6,313.1,121.6,314.3z"/>
					<path class="st9" d="M128.5,314.3c0,1.1-0.9,2.1-2.1,2.1c-1.1,0-2.1-0.9-2.1-2.1s0.9-2.1,2.1-2.1
						C127.6,312.2,128.5,313.1,128.5,314.3z"/>
				</g>
			</g>
			<g>
				<path class="st6" d="M150,354.4c0-3,1.2-5.4,3.6-7.1l1.2-0.8c1.1-0.7,1.9-1.3,2.3-1.8c0.4-0.5,0.6-1,0.6-1.7
					c0-1.7-1.4-2.6-4.3-2.6c-1.3,0-2.7,0.2-4.1,0.5c-1.4,0.4-2.8,0.9-4,1.5v-6.8c2.7-1.2,5.8-1.9,9.1-1.9c3.6,0,6.5,0.8,8.7,2.3
					c2.1,1.5,3.2,3.6,3.2,6.3c0,1.5-0.3,2.7-1,3.7c-0.7,0.9-1.8,2-3.5,3.1c-1.1,0.8-1.9,1.4-2.4,1.8s-0.9,0.9-1.1,1.4
					c-0.3,0.5-0.4,1.2-0.4,2v0.8H150V354.4z M150.9,365.1c-0.8-0.8-1.2-1.8-1.2-2.9c0-1.2,0.4-2.2,1.2-2.9c0.8-0.8,1.8-1.2,3-1.2
					s2.1,0.4,3,1.2c0.8,0.8,1.2,1.8,1.2,2.9c0,1.2-0.4,2.1-1.2,2.9s-1.8,1.2-3,1.2C152.7,366.2,151.7,365.9,150.9,365.1z"/>
			</g>
		</g>
		<g>
			<g>
				<g>
					<rect x="191.8" y="279.6" class="st7" width="97.9" height="72.2"/>
					<rect x="191.8" y="279.6" class="st3" width="97.9" height="9"/>
				</g>
				<g>
					<circle class="st4" cx="197.6" cy="284.3" r="2.1"/>
					<path class="st8" d="M206.6,284.3c0,1.1-0.9,2.1-2.1,2.1c-1.1,0-2.1-0.9-2.1-2.1c0-1.1,0.9-2.1,2.1-2.1
						C205.7,282.3,206.6,283.2,206.6,284.3z"/>
					<circle class="st9" cx="211.5" cy="284.3" r="2.1"/>
				</g>
			</g>
			<g>
				<path class="st6" d="M235.1,324.5c0-3,1.2-5.4,3.6-7.1l1.2-0.8c1.1-0.7,1.9-1.3,2.3-1.8c0.4-0.5,0.6-1,0.6-1.7
					c0-1.7-1.4-2.6-4.3-2.6c-1.3,0-2.7,0.2-4.1,0.5c-1.4,0.4-2.8,0.9-4,1.5v-6.8c2.7-1.2,5.8-1.9,9.1-1.9c3.6,0,6.5,0.8,8.7,2.3
					c2.1,1.5,3.2,3.6,3.2,6.3c0,1.5-0.3,2.7-1,3.7c-0.7,0.9-1.8,2-3.5,3.1c-1.1,0.8-1.9,1.4-2.4,1.8s-0.9,0.9-1.1,1.4
					c-0.3,0.5-0.4,1.2-0.4,2v0.8h-7.8v-0.7H235.1z M236,335.1c-0.8-0.8-1.2-1.8-1.2-2.9c0-1.2,0.4-2.2,1.2-2.9
					c0.8-0.8,1.8-1.2,3-1.2s2.1,0.4,3,1.2c0.8,0.8,1.2,1.8,1.2,2.9c0,1.2-0.4,2.1-1.2,2.9s-1.8,1.2-3,1.2
					C237.8,336.3,236.8,335.9,236,335.1z"/>
			</g>
		</g>
	</g>
	<g>
		<g>
			<path class="st3" d="M217.4,190.6l-15.5,4.2l-4.2-15.6l-31.6,8.6l14.8,54.4l47.2-12.8L217.4,190.6L217.4,190.6z M201.5,221.9
				c-0.4,0.7-1.1,1.2-1.9,1.4c-0.9,0.2-1.6,0.1-2.4-0.3c-0.7-0.4-1.2-1-1.4-1.9s-0.1-1.6,0.3-2.4c0.4-0.7,1.1-1.2,1.9-1.4
				c0.8-0.2,1.6-0.1,2.4,0.3c0.7,0.4,1.2,1,1.5,1.9C202.1,220.4,202,221.2,201.5,221.9z M203.9,206.6c-0.3,0.8-0.9,1.8-1.9,2.9
				c-0.6,0.8-1.1,1.4-1.4,1.8c-0.3,0.4-0.5,0.8-0.5,1.3c-0.1,0.4,0,0.9,0.1,1.5l0.2,0.6l-5.7,1.5l-0.2-0.7c-0.6-2.2-0.2-4.1,1.2-5.8
				l0.7-0.8c0.7-0.7,1.1-1.3,1.3-1.7s0.3-0.9,0.1-1.4c-0.3-1.2-1.5-1.6-3.6-1c-1,0.3-1.9,0.7-2.9,1.2s-1.8,1.2-2.6,1.9l-1.3-4.9
				c1.7-1.4,3.8-2.5,6.2-3.1c2.6-0.7,4.9-0.7,6.7,0s3,2,3.6,3.9C204.2,204.8,204.2,205.8,203.9,206.6z"/>
			<polygon class="st3" points="200.7,179.9 203.8,191.5 215.3,188.3 			"/>
		</g>
		<g>
			<path class="st3" d="M305.3,128.7l-20.9-6.7l6.7-21l-42.6-13.6l-23.4,73.2l63.6,20.4l16.7-52.1L305.3,128.7z M263.9,152.7
				c-1,0.5-2.1,0.6-3.2,0.2c-1.2-0.4-2-1.1-2.5-2.1s-0.6-2.1-0.2-3.2c0.4-1.2,1.1-2,2.1-2.5s2.1-0.6,3.2-0.2c1.1,0.4,2,1,2.5,2.1
				c0.5,1,0.6,2.1,0.3,3.2C265.7,151.3,265,152.2,263.9,152.7z M278,136.9c-1,0.7-2.4,1.4-4.3,2c-1.3,0.4-2.3,0.8-2.9,1
				c-0.6,0.3-1.1,0.6-1.6,1.1c-0.4,0.4-0.7,1-1,1.8l-0.3,0.8l-7.6-2.4l0.3-0.9c0.9-2.9,2.8-4.9,5.7-5.8l1.4-0.4
				c1.3-0.3,2.2-0.7,2.8-1c0.6-0.3,0.9-0.8,1.2-1.5c0.5-1.7-0.6-3-3.4-3.9c-1.3-0.4-2.7-0.7-4.2-0.8c-1.5-0.1-3,0-4.4,0.2l2.1-6.7
				c3-0.4,6.2,0,9.5,1c3.5,1.1,6.1,2.8,7.7,4.9c1.6,2.1,2,4.5,1.1,7.2C279.6,135.1,278.9,136.2,278,136.9z"/>
			<polygon class="st3" points="294.1,103.9 289.1,119.5 304.6,124.5 			"/>
		</g>
	</g>
	<g>
		<g>
			<path class="st4" d="M429.5,207.8c0,4.6-3.7,8.3-8.3,8.3H332c-4.6,0-8.3-3.7-8.3-8.3v-55.9c0-4.6,3.7-8.3,8.3-8.3h89.2
				c4.6,0,8.3,3.7,8.3,8.3V207.8z"/>
			<g>
				<g>
					<path class="st13" d="M400.8,204.5h-48.5c-2.7,0-4.9-1.1-5.9-3s-0.8-4.3,0.7-6.6l0,0l23.6-36.2c1.4-2.2,3.6-3.5,5.8-3.5
						c2.3,0,4.4,1.3,5.8,3.5l23.6,36.2c1.5,2.3,1.8,4.7,0.7,6.6C405.7,203.4,403.5,204.5,400.8,204.5z M351.4,197.7
						c-0.5,0.8-0.5,1.3-0.5,1.4c0,0.1,0.4,0.3,1.4,0.3h48.5c1,0,1.4-0.3,1.4-0.3c0-0.1,0-0.5-0.5-1.3l-23.6-36.2
						c-0.5-0.7-1-1.2-1.5-1.2s-1.1,0.4-1.5,1.2L351.4,197.7z"/>
				</g>
				<g>
					<path class="st13" d="M375.1,194.6c-0.4-0.4-0.6-0.9-0.6-1.5s0.2-1.1,0.6-1.5s0.9-0.6,1.5-0.6s1.1,0.2,1.5,0.6
						c0.4,0.4,0.6,0.9,0.6,1.5s-0.2,1.1-0.6,1.5s-0.9,0.6-1.5,0.6C376,195.2,375.5,195,375.1,194.6z M373.9,170.6h5.4l-1,17.2h-3.4
						L373.9,170.6z"/>
				</g>
			</g>
		</g>
		<g>
			<path class="st4" d="M142.6,278.8c0,3.8-3.1,6.9-6.9,6.9H61.8c-3.8,0-6.9-3.1-6.9-6.9v-46.3c0-3.8,3.1-6.9,6.9-6.9h73.9
				c3.8,0,6.9,3.1,6.9,6.9L142.6,278.8L142.6,278.8z"/>
			<path class="st13" d="M98.8,231.6c-13.2,0-24,10.8-24,24c0,13.2,10.8,24,24,24s24-10.8,24-24S112,231.6,98.8,231.6z M98.8,236.2
				c4.6,0,8.8,1.6,12.1,4.2l-27.3,27.3c-2.6-3.3-4.2-7.5-4.2-12.1C79.3,244.9,88,236.2,98.8,236.2z M98.8,275.1
				c-4.6,0-8.8-1.6-12.1-4.2l27.3-27.3c2.6,3.3,4.2,7.5,4.2,12.1C118.3,266.4,109.5,275.1,98.8,275.1z"/>
		</g>
	</g>
	<g>
		<g>
			<g>
				<g>
					
						<rect x="260.1" y="388.6" transform="matrix(0.9023 -0.4312 0.4312 0.9023 -140.6976 163.7756)" class="st4" width="61.6" height="7.3"/>
				</g>
				<g>
					
						<rect x="296.9" y="380.3" transform="matrix(0.9023 -0.4312 0.4312 0.9023 -135.4085 170.4973)" class="st10" width="22.9" height="7.3"/>
				</g>
			</g>
			<g>
				<path class="st4" d="M370.8,354.1c-7.4-15.5-25.9-22-41.4-14.6s-22,25.9-14.6,41.4s25.9,22,41.4,14.6
					C371.7,388,378.2,369.5,370.8,354.1z M320.9,377.9c-5.8-12.1-0.7-26.6,11.4-32.4s26.6-0.7,32.4,11.4s0.7,26.6-11.4,32.4
					C341.2,395.1,326.7,390,320.9,377.9z"/>
				<ellipse class="st14" cx="342.8" cy="367.4" rx="24.3" ry="24.3"/>
			</g>
		</g>
		<path class="st13" d="M342.4,361.7c-3.5,1.7-7.7,0.2-9.4-3.3c-1.7-3.5-0.2-7.7,3.3-9.4c3.5-1.7,7.7-0.2,9.4,3.3
			C347.4,355.8,345.9,360.1,342.4,361.7z"/>
	</g>
	<g>
		<g>
			<path class="st6" d="M181.1,125.5c1-4.2,3.4-7.1,7.3-8.7l1.9-0.7c1.8-0.6,3-1.2,3.8-1.7c0.7-0.5,1.2-1.2,1.5-2.2
				c0.6-2.4-1.2-4.1-5.2-5c-1.9-0.4-3.8-0.6-5.9-0.6c-2.1,0-4.1,0.3-6.1,0.8l2.2-9.6c4.2-0.9,8.7-0.7,13.4,0.4
				c5.1,1.2,8.9,3.2,11.4,6s3.3,6.1,2.4,9.9c-0.5,2.1-1.4,3.7-2.6,4.8c-1.3,1.1-3.2,2.2-5.9,3.2c-1.8,0.8-3.1,1.4-4,1.8
				c-0.8,0.4-1.5,1-2.1,1.6c-0.5,0.7-0.9,1.5-1.2,2.6l-0.3,1.2l-10.9-2.5L181.1,125.5z M178.9,140.7c-0.8-1.4-1.1-2.8-0.7-4.4
				c0.4-1.7,1.3-2.9,2.6-3.7s2.8-1,4.5-0.7c1.6,0.4,2.9,1.2,3.7,2.6c0.9,1.4,1.1,2.8,0.8,4.5s-1.3,2.8-2.7,3.7
				c-1.4,0.8-2.9,1.1-4.5,0.7C181,142.9,179.7,142,178.9,140.7z"/>
		</g>
		<g>
			<path class="st6" d="M107.4,208.7c-1.1-2.3-1.1-4.6,0.1-6.8l0.6-1c0.6-1,0.9-1.7,1.1-2.2s0.1-1-0.1-1.6c-0.6-1.3-2.1-1.4-4.3-0.4
				c-1,0.5-2,1.2-3,2s-1.8,1.7-2.5,2.7l-2.6-5.2c1.6-2,3.7-3.6,6.3-4.9c2.8-1.4,5.3-1.9,7.5-1.5s3.8,1.6,4.8,3.6
				c0.6,1.2,0.8,2.2,0.6,3.2c-0.2,1-0.7,2.2-1.5,3.7c-0.5,1-0.9,1.8-1.1,2.3s-0.3,1-0.3,1.5s0.2,1,0.4,1.6l0.3,0.6l-6,2.9
				L107.4,208.7z M112.1,216.5c-0.9-0.3-1.6-0.9-2-1.8c-0.4-0.9-0.5-1.8-0.2-2.7s0.9-1.5,1.8-2c0.9-0.4,1.8-0.5,2.7-0.2
				c0.9,0.3,1.6,0.9,2,1.8c0.4,0.9,0.5,1.8,0.2,2.7s-0.9,1.6-1.8,2C113.9,216.7,113,216.8,112.1,216.5z"/>
		</g>
	</g>
	<g>
		<path class="st10" d="M97.4,165v-4h-5c-0.3-2.2-1.2-4.3-2.5-6l3.5-3.5l-2.8-2.8l-3.5,3.5c-1.7-1.3-3.8-2.2-6-2.5v-5h-3.9v5
			c-2.2,0.3-4.3,1.2-6,2.5l-3.5-3.5l-2.8,2.8l3.5,3.5c-1.3,1.7-2.2,3.8-2.5,6h-5v3.9h5c0.3,2.2,1.2,4.3,2.5,6l-3.5,3.5l2.8,2.8
			l3.5-3.5c1.7,1.3,3.8,2.2,6,2.5v5h3.9v-5c2.2-0.3,4.3-1.2,6-2.5l3.5,3.5l2.8-2.8L90,171c1.3-1.7,2.2-3.8,2.5-6H97.4z M79.2,171.3
			c-4.6,0-8.3-3.7-8.3-8.3s3.7-8.3,8.3-8.3s8.3,3.7,8.3,8.3S83.8,171.3,79.2,171.3z"/>
		<path class="st8" d="M139.7,140.8v-5.5h-7c-0.5-3.1-1.7-6-3.5-8.4l4.9-4.9l-3.9-3.9l-4.9,4.9c-2.4-1.8-5.3-3-8.4-3.5v-7h-5.5v7
			c-3.1,0.5-6,1.7-8.4,3.5l-4.9-4.9l-3.9,3.9l4.9,4.9c-1.8,2.4-3,5.3-3.5,8.4h-7v5.5h7c0.5,3.1,1.7,6,3.5,8.4l-4.9,4.9l3.9,3.9
			l4.9-4.9c2.4,1.8,5.3,3,8.4,3.5v7h5.5v-7c3.1-0.5,6-1.7,8.4-3.5l4.9,4.9l3.9-3.9l-4.9-4.9c1.8-2.4,3-5.3,3.5-8.4H139.7z
			 M114.2,149.7c-6.4,0-11.6-5.2-11.6-11.6c0-6.4,5.2-11.6,11.6-11.6s11.6,5.2,11.6,11.6C125.8,144.5,120.6,149.7,114.2,149.7z"/>
	</g>
</g>
</svg>
